<svg xmlns="http://www.w3.org/2000/svg" version="1.1" xmlns:xlink="http://www.w3.org/1999/xlink" xmlns:svgjs="http://svgjs.dev/svgjs" width="2000" height="500" preserveAspectRatio="none" viewBox="0 0 2000 500"><g mask="url(&quot;#SvgjsMask1021&quot;)" fill="none"><path d="M792.09 518.86C938.27 479.67 887.73 77.26 1204.44 75.64 1521.15 74.02 1818.62 244.76 2029.13 245.64" stroke="rgba(255, 64, 129, 1)" stroke-width="2"></path><path d="M385.89 556.74C636.13 554.16 854.87 288.09 1349.36 285.18 1843.85 282.27 2068.02 110.89 2312.83 110.18" stroke="rgba(255, 64, 129, 1)" stroke-width="2"></path><path d="M860.57 540.89C1017.95 535.04 1145.77 282.8 1435.13 282.55 1724.48 282.3 1862.94 401.91 2009.68 402.55" stroke="rgba(255, 64, 129, 1)" stroke-width="2"></path><path d="M1040.85 596.51C1154.3 576.13 1104.14 302.65 1387.87 292.94 1671.6 283.23 1904.4 143.79 2081.92 142.94" stroke="rgba(255, 64, 129, 1)" stroke-width="2"></path><path d="M589.37 541.94C723.61 539.59 706.94 370.93 1097.73 368.82 1488.53 366.71 1856.75 199.4 2114.46 198.82" stroke="rgba(255, 64, 129, 1)" stroke-width="2"></path></g><defs><mask id="SvgjsMask1021"><rect width="2000" height="500" fill="#ffffff"></rect></mask></defs></svg>